<svg xmlns="http://www.w3.org/2000/svg" xmlns:xlink="http://www.w3.org/1999/xlink" width="500" zoomAndPan="magnify" viewBox="0 0 375 374.999991" height="500" preserveAspectRatio="xMidYMid meet" version="1.0"><defs><g/><clipPath id="id1"><path d="M 184 86.007812 L 245.03125 86.007812 L 245.03125 188 L 184 188 Z M 184 86.007812 " clip-rule="nonzero"/></clipPath><clipPath id="id2"><path d="M 130.28125 86.007812 L 240 86.007812 L 240 200.757812 L 130.28125 200.757812 Z M 130.28125 86.007812 " clip-rule="nonzero"/></clipPath><clipPath id="id3"><path d="M 197 158 L 227 158 L 227 200.757812 L 197 200.757812 Z M 197 158 " clip-rule="nonzero"/></clipPath></defs><path fill="#051d40" d="M 137.894531 143.382812 C 137.894531 167.8125 157.699219 187.621094 182.128906 187.621094 C 183.054688 187.621094 183.972656 187.585938 184.882812 187.53125 C 161.746094 186.097656 143.421875 166.882812 143.421875 143.382812 C 143.421875 119.882812 161.75 100.664062 184.894531 99.238281 C 183.980469 99.179688 183.058594 99.148438 182.128906 99.148438 C 157.699219 99.148438 137.894531 118.953125 137.894531 143.382812 " fill-opacity="1" fill-rule="nonzero"/><g clip-path="url(#id1)"><path fill="#051d40" d="M 187.65625 86.007812 C 186.730469 86.007812 185.808594 86.03125 184.894531 86.074219 C 215.296875 87.515625 239.507812 112.621094 239.507812 143.382812 C 239.507812 159.355469 232.980469 173.804688 222.445312 184.207031 L 224.457031 187.40625 C 237.035156 176.878906 245.035156 161.066406 245.035156 143.382812 C 245.035156 111.695312 219.34375 86.007812 187.65625 86.007812 " fill-opacity="1" fill-rule="nonzero"/></g><g clip-path="url(#id2)"><path fill="#ff914d" d="M 184.894531 86.074219 C 154.488281 87.515625 130.28125 112.621094 130.28125 143.382812 C 130.28125 174.148438 154.492188 199.257812 184.898438 200.695312 C 185.8125 200.738281 186.730469 200.761719 187.65625 200.761719 C 194.914062 200.761719 201.859375 199.414062 208.253906 196.953125 L 191.675781 187.4375 C 190.351562 187.554688 189.011719 187.621094 187.65625 187.621094 C 187.25 187.621094 186.84375 187.613281 186.441406 187.601562 C 185.917969 187.589844 185.398438 187.5625 184.882812 187.53125 C 183.972656 187.585938 183.054688 187.621094 182.128906 187.621094 C 157.699219 187.621094 137.894531 167.8125 137.894531 143.382812 C 137.894531 118.953125 157.699219 99.148438 182.128906 99.148438 C 183.058594 99.148438 183.980469 99.179688 184.894531 99.238281 C 185.808594 99.179688 186.726562 99.148438 187.65625 99.148438 C 212.085938 99.148438 231.890625 118.953125 231.890625 143.382812 C 231.890625 156.375 226.289062 168.058594 217.375 176.152344 L 222.445312 184.207031 C 232.980469 173.804688 239.507812 159.355469 239.507812 143.382812 C 239.507812 112.621094 215.296875 87.515625 184.894531 86.074219 " fill-opacity="1" fill-rule="nonzero"/></g><g clip-path="url(#id3)"><path fill="#051d40" d="M 226.207031 200.761719 L 199.5625 158.445312 L 197.226562 162.402344 L 218.648438 196.421875 L 226.207031 200.761719 " fill-opacity="1" fill-rule="nonzero"/></g><path fill="#ff914d" d="M 218.648438 196.421875 L 197.226562 162.402344 L 187.65625 178.625 Z M 218.648438 196.421875 " fill-opacity="1" fill-rule="nonzero"/><g fill="#000000" fill-opacity="1"><g transform="translate(75.217109, 284.00655)"><g><path d="M 4.59375 -11.46875 C 6.09375 -11.46875 7.1875 -11.171875 7.875 -10.578125 C 8.5625 -9.992188 8.90625 -9.164062 8.90625 -8.09375 C 8.90625 -7.457031 8.757812 -6.863281 8.46875 -6.3125 C 8.1875 -5.769531 7.710938 -5.328125 7.046875 -4.984375 C 6.378906 -4.640625 5.472656 -4.46875 4.328125 -4.46875 L 3 -4.46875 L 3 0 L 1.5625 0 L 1.5625 -11.46875 Z M 4.46875 -10.234375 L 3 -10.234375 L 3 -5.703125 L 4.15625 -5.703125 C 5.25 -5.703125 6.0625 -5.878906 6.59375 -6.234375 C 7.132812 -6.585938 7.40625 -7.1875 7.40625 -8.03125 C 7.40625 -8.769531 7.164062 -9.320312 6.6875 -9.6875 C 6.207031 -10.050781 5.46875 -10.234375 4.46875 -10.234375 Z M 4.46875 -10.234375 "/></g></g></g><g fill="#000000" fill-opacity="1"><g transform="translate(86.084445, 284.00655)"><g><path d="M 4.625 -8.75 C 5.675781 -8.75 6.453125 -8.519531 6.953125 -8.0625 C 7.453125 -7.601562 7.703125 -6.867188 7.703125 -5.859375 L 7.703125 0 L 6.6875 0 L 6.40625 -1.21875 L 6.34375 -1.21875 C 5.96875 -0.75 5.570312 -0.398438 5.15625 -0.171875 C 4.738281 0.046875 4.171875 0.15625 3.453125 0.15625 C 2.671875 0.15625 2.019531 -0.046875 1.5 -0.453125 C 0.988281 -0.867188 0.734375 -1.515625 0.734375 -2.390625 C 0.734375 -3.242188 1.070312 -3.90625 1.75 -4.375 C 2.425781 -4.84375 3.460938 -5.097656 4.859375 -5.140625 L 6.328125 -5.1875 L 6.328125 -5.703125 C 6.328125 -6.421875 6.171875 -6.914062 5.859375 -7.1875 C 5.546875 -7.46875 5.109375 -7.609375 4.546875 -7.609375 C 4.097656 -7.609375 3.671875 -7.539062 3.265625 -7.40625 C 2.859375 -7.28125 2.476562 -7.128906 2.125 -6.953125 L 1.6875 -8.015625 C 2.0625 -8.222656 2.503906 -8.394531 3.015625 -8.53125 C 3.535156 -8.675781 4.070312 -8.75 4.625 -8.75 Z M 6.3125 -4.203125 L 5.046875 -4.15625 C 3.972656 -4.113281 3.226562 -3.941406 2.8125 -3.640625 C 2.40625 -3.347656 2.203125 -2.925781 2.203125 -2.375 C 2.203125 -1.894531 2.347656 -1.539062 2.640625 -1.3125 C 2.929688 -1.09375 3.3125 -0.984375 3.78125 -0.984375 C 4.488281 -0.984375 5.085938 -1.179688 5.578125 -1.578125 C 6.066406 -1.984375 6.3125 -2.601562 6.3125 -3.4375 Z M 6.3125 -4.203125 "/></g></g></g><g fill="#000000" fill-opacity="1"><g transform="translate(96.245528, 284.00655)"><g><path d="M 2.78125 0 L 1.359375 0 L 1.359375 -12.203125 L 2.78125 -12.203125 Z M 2.78125 0 "/></g></g></g><g fill="#000000" fill-opacity="1"><g transform="translate(101.543133, 284.00655)"><g><path d="M 2.09375 -11.84375 C 2.300781 -11.84375 2.488281 -11.769531 2.65625 -11.625 C 2.820312 -11.476562 2.90625 -11.25 2.90625 -10.9375 C 2.90625 -10.625 2.820312 -10.394531 2.65625 -10.25 C 2.488281 -10.101562 2.300781 -10.03125 2.09375 -10.03125 C 1.851562 -10.03125 1.648438 -10.101562 1.484375 -10.25 C 1.328125 -10.394531 1.25 -10.625 1.25 -10.9375 C 1.25 -11.25 1.328125 -11.476562 1.484375 -11.625 C 1.648438 -11.769531 1.851562 -11.84375 2.09375 -11.84375 Z M 2.78125 -8.609375 L 2.78125 0 L 1.359375 0 L 1.359375 -8.609375 Z M 2.78125 -8.609375 "/></g></g></g><g fill="#000000" fill-opacity="1"><g transform="translate(106.840739, 284.00655)"><g><path d="M 5.515625 -8.765625 C 6.535156 -8.765625 7.304688 -8.515625 7.828125 -8.015625 C 8.359375 -7.515625 8.625 -6.710938 8.625 -5.609375 L 8.625 0 L 7.234375 0 L 7.234375 -5.515625 C 7.234375 -6.890625 6.585938 -7.578125 5.296875 -7.578125 C 4.347656 -7.578125 3.691406 -7.304688 3.328125 -6.765625 C 2.960938 -6.234375 2.78125 -5.46875 2.78125 -4.46875 L 2.78125 0 L 1.359375 0 L 1.359375 -8.609375 L 2.5 -8.609375 L 2.71875 -7.4375 L 2.796875 -7.4375 C 3.078125 -7.882812 3.460938 -8.21875 3.953125 -8.4375 C 4.441406 -8.65625 4.960938 -8.765625 5.515625 -8.765625 Z M 5.515625 -8.765625 "/></g></g></g><g fill="#000000" fill-opacity="1"><g transform="translate(117.916741, 284.00655)"><g><path d="M 4.421875 0.15625 C 3.347656 0.15625 2.488281 -0.210938 1.84375 -0.953125 C 1.207031 -1.703125 0.890625 -2.8125 0.890625 -4.28125 C 0.890625 -5.757812 1.210938 -6.875 1.859375 -7.625 C 2.503906 -8.382812 3.363281 -8.765625 4.4375 -8.765625 C 5.09375 -8.765625 5.632812 -8.640625 6.0625 -8.390625 C 6.488281 -8.148438 6.832031 -7.851562 7.09375 -7.5 L 7.203125 -7.5 C 7.171875 -7.632812 7.144531 -7.835938 7.125 -8.109375 C 7.101562 -8.390625 7.09375 -8.609375 7.09375 -8.765625 L 7.09375 -12.203125 L 8.515625 -12.203125 L 8.515625 0 L 7.375 0 L 7.15625 -1.15625 L 7.09375 -1.15625 C 6.84375 -0.789062 6.5 -0.476562 6.0625 -0.21875 C 5.632812 0.03125 5.085938 0.15625 4.421875 0.15625 Z M 4.640625 -1.015625 C 5.546875 -1.015625 6.179688 -1.257812 6.546875 -1.75 C 6.921875 -2.25 7.109375 -3.003906 7.109375 -4.015625 L 7.109375 -4.265625 C 7.109375 -5.335938 6.929688 -6.160156 6.578125 -6.734375 C 6.234375 -7.304688 5.582031 -7.59375 4.625 -7.59375 C 3.863281 -7.59375 3.289062 -7.289062 2.90625 -6.6875 C 2.53125 -6.082031 2.34375 -5.269531 2.34375 -4.25 C 2.34375 -3.226562 2.53125 -2.429688 2.90625 -1.859375 C 3.289062 -1.296875 3.867188 -1.015625 4.640625 -1.015625 Z M 4.640625 -1.015625 "/></g></g></g><g fill="#000000" fill-opacity="1"><g transform="translate(128.944583, 284.00655)"><g><path d="M 5.375 -8.765625 C 5.539062 -8.765625 5.710938 -8.753906 5.890625 -8.734375 C 6.078125 -8.722656 6.242188 -8.703125 6.390625 -8.671875 L 6.21875 -7.375 C 6.070312 -7.40625 5.914062 -7.429688 5.75 -7.453125 C 5.582031 -7.472656 5.425781 -7.484375 5.28125 -7.484375 C 4.84375 -7.484375 4.429688 -7.363281 4.046875 -7.125 C 3.660156 -6.882812 3.351562 -6.546875 3.125 -6.109375 C 2.894531 -5.679688 2.78125 -5.175781 2.78125 -4.59375 L 2.78125 0 L 1.359375 0 L 1.359375 -8.609375 L 2.515625 -8.609375 L 2.6875 -7.03125 L 2.75 -7.03125 C 3.007812 -7.5 3.363281 -7.90625 3.8125 -8.25 C 4.257812 -8.59375 4.78125 -8.765625 5.375 -8.765625 Z M 5.375 -8.765625 "/></g></g></g><g fill="#000000" fill-opacity="1"><g transform="translate(136.73011, 284.00655)"><g><path d="M 8.84375 -4.328125 C 8.84375 -2.898438 8.484375 -1.796875 7.765625 -1.015625 C 7.046875 -0.234375 6.066406 0.15625 4.828125 0.15625 C 4.066406 0.15625 3.390625 -0.015625 2.796875 -0.359375 C 2.203125 -0.710938 1.734375 -1.222656 1.390625 -1.890625 C 1.054688 -2.554688 0.890625 -3.367188 0.890625 -4.328125 C 0.890625 -5.742188 1.242188 -6.835938 1.953125 -7.609375 C 2.660156 -8.378906 3.640625 -8.765625 4.890625 -8.765625 C 5.660156 -8.765625 6.34375 -8.585938 6.9375 -8.234375 C 7.539062 -7.890625 8.007812 -7.390625 8.34375 -6.734375 C 8.675781 -6.078125 8.84375 -5.273438 8.84375 -4.328125 Z M 2.34375 -4.328125 C 2.34375 -3.304688 2.539062 -2.5 2.9375 -1.90625 C 3.34375 -1.3125 3.984375 -1.015625 4.859375 -1.015625 C 5.734375 -1.015625 6.375 -1.3125 6.78125 -1.90625 C 7.1875 -2.5 7.390625 -3.304688 7.390625 -4.328125 C 7.390625 -5.335938 7.1875 -6.128906 6.78125 -6.703125 C 6.375 -7.285156 5.726562 -7.578125 4.84375 -7.578125 C 3.96875 -7.578125 3.332031 -7.285156 2.9375 -6.703125 C 2.539062 -6.128906 2.34375 -5.335938 2.34375 -4.328125 Z M 2.34375 -4.328125 "/></g></g></g><g fill="#000000" fill-opacity="1"><g transform="translate(147.597447, 284.00655)"><g><path d="M 10.8125 -8.765625 C 11.78125 -8.765625 12.503906 -8.515625 12.984375 -8.015625 C 13.472656 -7.515625 13.71875 -6.710938 13.71875 -5.609375 L 13.71875 0 L 12.3125 0 L 12.3125 -5.546875 C 12.3125 -6.898438 11.726562 -7.578125 10.5625 -7.578125 C 9.726562 -7.578125 9.128906 -7.335938 8.765625 -6.859375 C 8.410156 -6.378906 8.234375 -5.675781 8.234375 -4.75 L 8.234375 0 L 6.84375 0 L 6.84375 -5.546875 C 6.84375 -6.898438 6.253906 -7.578125 5.078125 -7.578125 C 4.210938 -7.578125 3.613281 -7.304688 3.28125 -6.765625 C 2.945312 -6.234375 2.78125 -5.46875 2.78125 -4.46875 L 2.78125 0 L 1.359375 0 L 1.359375 -8.609375 L 2.5 -8.609375 L 2.71875 -7.4375 L 2.796875 -7.4375 C 3.066406 -7.882812 3.425781 -8.21875 3.875 -8.4375 C 4.332031 -8.65625 4.816406 -8.765625 5.328125 -8.765625 C 6.679688 -8.765625 7.5625 -8.285156 7.96875 -7.328125 L 8.046875 -7.328125 C 8.335938 -7.816406 8.726562 -8.175781 9.21875 -8.40625 C 9.707031 -8.644531 10.238281 -8.765625 10.8125 -8.765625 Z M 10.8125 -8.765625 "/></g></g></g><g fill="#000000" fill-opacity="1"><g transform="translate(163.761642, 284.00655)"><g><path d="M 4.6875 -8.765625 C 5.414062 -8.765625 6.046875 -8.601562 6.578125 -8.28125 C 7.117188 -7.96875 7.53125 -7.519531 7.8125 -6.9375 C 8.09375 -6.351562 8.234375 -5.671875 8.234375 -4.890625 L 8.234375 -4.03125 L 2.34375 -4.03125 C 2.363281 -3.050781 2.613281 -2.304688 3.09375 -1.796875 C 3.570312 -1.296875 4.238281 -1.046875 5.09375 -1.046875 C 5.632812 -1.046875 6.117188 -1.09375 6.546875 -1.1875 C 6.972656 -1.289062 7.410156 -1.441406 7.859375 -1.640625 L 7.859375 -0.40625 C 7.421875 -0.207031 6.984375 -0.0664062 6.546875 0.015625 C 6.117188 0.109375 5.613281 0.15625 5.03125 0.15625 C 4.207031 0.15625 3.484375 -0.00390625 2.859375 -0.328125 C 2.234375 -0.660156 1.75 -1.15625 1.40625 -1.8125 C 1.0625 -2.46875 0.890625 -3.273438 0.890625 -4.234375 C 0.890625 -5.179688 1.046875 -5.988281 1.359375 -6.65625 C 1.671875 -7.332031 2.113281 -7.851562 2.6875 -8.21875 C 3.257812 -8.582031 3.925781 -8.765625 4.6875 -8.765625 Z M 4.671875 -7.609375 C 3.992188 -7.609375 3.457031 -7.390625 3.0625 -6.953125 C 2.675781 -6.523438 2.445312 -5.925781 2.375 -5.15625 L 6.765625 -5.15625 C 6.753906 -5.882812 6.582031 -6.472656 6.25 -6.921875 C 5.914062 -7.378906 5.390625 -7.609375 4.671875 -7.609375 Z M 4.671875 -7.609375 "/></g></g></g><g fill="#000000" fill-opacity="1"><g transform="translate(173.970882, 284.00655)"><g/></g></g><g fill="#000000" fill-opacity="1"><g transform="translate(176.732411, 284.00655)"><g><path d="M 6.46875 -10.359375 C 5.238281 -10.359375 4.269531 -9.945312 3.5625 -9.125 C 2.851562 -8.300781 2.5 -7.171875 2.5 -5.734375 C 2.5 -4.304688 2.828125 -3.175781 3.484375 -2.34375 C 4.148438 -1.519531 5.140625 -1.109375 6.453125 -1.109375 C 6.953125 -1.109375 7.425781 -1.148438 7.875 -1.234375 C 8.320312 -1.316406 8.765625 -1.425781 9.203125 -1.5625 L 9.203125 -0.3125 C 8.773438 -0.144531 8.332031 -0.0234375 7.875 0.046875 C 7.425781 0.117188 6.882812 0.15625 6.25 0.15625 C 5.082031 0.15625 4.109375 -0.0820312 3.328125 -0.5625 C 2.546875 -1.039062 1.957031 -1.722656 1.5625 -2.609375 C 1.175781 -3.503906 0.984375 -4.550781 0.984375 -5.75 C 0.984375 -6.90625 1.191406 -7.925781 1.609375 -8.8125 C 2.035156 -9.695312 2.660156 -10.382812 3.484375 -10.875 C 4.304688 -11.375 5.304688 -11.625 6.484375 -11.625 C 7.691406 -11.625 8.75 -11.398438 9.65625 -10.953125 L 9.078125 -9.734375 C 8.722656 -9.890625 8.328125 -10.03125 7.890625 -10.15625 C 7.460938 -10.289062 6.988281 -10.359375 6.46875 -10.359375 Z M 6.46875 -10.359375 "/></g></g></g><g fill="#000000" fill-opacity="1"><g transform="translate(188.033123, 284.00655)"><g><path d="M 8.84375 -4.328125 C 8.84375 -2.898438 8.484375 -1.796875 7.765625 -1.015625 C 7.046875 -0.234375 6.066406 0.15625 4.828125 0.15625 C 4.066406 0.15625 3.390625 -0.015625 2.796875 -0.359375 C 2.203125 -0.710938 1.734375 -1.222656 1.390625 -1.890625 C 1.054688 -2.554688 0.890625 -3.367188 0.890625 -4.328125 C 0.890625 -5.742188 1.242188 -6.835938 1.953125 -7.609375 C 2.660156 -8.378906 3.640625 -8.765625 4.890625 -8.765625 C 5.660156 -8.765625 6.34375 -8.585938 6.9375 -8.234375 C 7.539062 -7.890625 8.007812 -7.390625 8.34375 -6.734375 C 8.675781 -6.078125 8.84375 -5.273438 8.84375 -4.328125 Z M 2.34375 -4.328125 C 2.34375 -3.304688 2.539062 -2.5 2.9375 -1.90625 C 3.34375 -1.3125 3.984375 -1.015625 4.859375 -1.015625 C 5.734375 -1.015625 6.375 -1.3125 6.78125 -1.90625 C 7.1875 -2.5 7.390625 -3.304688 7.390625 -4.328125 C 7.390625 -5.335938 7.1875 -6.128906 6.78125 -6.703125 C 6.375 -7.285156 5.726562 -7.578125 4.84375 -7.578125 C 3.96875 -7.578125 3.332031 -7.285156 2.9375 -6.703125 C 2.539062 -6.128906 2.34375 -5.335938 2.34375 -4.328125 Z M 2.34375 -4.328125 "/></g></g></g><g fill="#000000" fill-opacity="1"><g transform="translate(198.900454, 284.00655)"><g><path d="M 4.421875 0.15625 C 3.347656 0.15625 2.488281 -0.210938 1.84375 -0.953125 C 1.207031 -1.703125 0.890625 -2.8125 0.890625 -4.28125 C 0.890625 -5.757812 1.210938 -6.875 1.859375 -7.625 C 2.503906 -8.382812 3.363281 -8.765625 4.4375 -8.765625 C 5.09375 -8.765625 5.632812 -8.640625 6.0625 -8.390625 C 6.488281 -8.148438 6.832031 -7.851562 7.09375 -7.5 L 7.203125 -7.5 C 7.171875 -7.632812 7.144531 -7.835938 7.125 -8.109375 C 7.101562 -8.390625 7.09375 -8.609375 7.09375 -8.765625 L 7.09375 -12.203125 L 8.515625 -12.203125 L 8.515625 0 L 7.375 0 L 7.15625 -1.15625 L 7.09375 -1.15625 C 6.84375 -0.789062 6.5 -0.476562 6.0625 -0.21875 C 5.632812 0.03125 5.085938 0.15625 4.421875 0.15625 Z M 4.640625 -1.015625 C 5.546875 -1.015625 6.179688 -1.257812 6.546875 -1.75 C 6.921875 -2.25 7.109375 -3.003906 7.109375 -4.015625 L 7.109375 -4.265625 C 7.109375 -5.335938 6.929688 -6.160156 6.578125 -6.734375 C 6.234375 -7.304688 5.582031 -7.59375 4.625 -7.59375 C 3.863281 -7.59375 3.289062 -7.289062 2.90625 -6.6875 C 2.53125 -6.082031 2.34375 -5.269531 2.34375 -4.25 C 2.34375 -3.226562 2.53125 -2.429688 2.90625 -1.859375 C 3.289062 -1.296875 3.867188 -1.015625 4.640625 -1.015625 Z M 4.640625 -1.015625 "/></g></g></g><g fill="#000000" fill-opacity="1"><g transform="translate(209.928293, 284.00655)"><g><path d="M 2.09375 -11.84375 C 2.300781 -11.84375 2.488281 -11.769531 2.65625 -11.625 C 2.820312 -11.476562 2.90625 -11.25 2.90625 -10.9375 C 2.90625 -10.625 2.820312 -10.394531 2.65625 -10.25 C 2.488281 -10.101562 2.300781 -10.03125 2.09375 -10.03125 C 1.851562 -10.03125 1.648438 -10.101562 1.484375 -10.25 C 1.328125 -10.394531 1.25 -10.625 1.25 -10.9375 C 1.25 -11.25 1.328125 -11.476562 1.484375 -11.625 C 1.648438 -11.769531 1.851562 -11.84375 2.09375 -11.84375 Z M 2.78125 -8.609375 L 2.78125 0 L 1.359375 0 L 1.359375 -8.609375 Z M 2.78125 -8.609375 "/></g></g></g><g fill="#000000" fill-opacity="1"><g transform="translate(215.225893, 284.00655)"><g><path d="M 5.515625 -8.765625 C 6.535156 -8.765625 7.304688 -8.515625 7.828125 -8.015625 C 8.359375 -7.515625 8.625 -6.710938 8.625 -5.609375 L 8.625 0 L 7.234375 0 L 7.234375 -5.515625 C 7.234375 -6.890625 6.585938 -7.578125 5.296875 -7.578125 C 4.347656 -7.578125 3.691406 -7.304688 3.328125 -6.765625 C 2.960938 -6.234375 2.78125 -5.46875 2.78125 -4.46875 L 2.78125 0 L 1.359375 0 L 1.359375 -8.609375 L 2.5 -8.609375 L 2.71875 -7.4375 L 2.796875 -7.4375 C 3.078125 -7.882812 3.460938 -8.21875 3.953125 -8.4375 C 4.441406 -8.65625 4.960938 -8.765625 5.515625 -8.765625 Z M 5.515625 -8.765625 "/></g></g></g><g fill="#000000" fill-opacity="1"><g transform="translate(226.301888, 284.00655)"><g><path d="M 4.421875 -8.765625 C 4.984375 -8.765625 5.492188 -8.65625 5.953125 -8.4375 C 6.410156 -8.226562 6.796875 -7.90625 7.109375 -7.46875 L 7.203125 -7.46875 L 7.390625 -8.609375 L 8.515625 -8.609375 L 8.515625 0.140625 C 8.515625 1.367188 8.203125 2.296875 7.578125 2.921875 C 6.953125 3.546875 5.976562 3.859375 4.65625 3.859375 C 3.394531 3.859375 2.363281 3.675781 1.5625 3.3125 L 1.5625 2 C 2.40625 2.457031 3.460938 2.6875 4.734375 2.6875 C 5.472656 2.6875 6.050781 2.46875 6.46875 2.03125 C 6.894531 1.59375 7.109375 1 7.109375 0.25 L 7.109375 -0.078125 C 7.109375 -0.203125 7.113281 -0.382812 7.125 -0.625 C 7.132812 -0.875 7.144531 -1.046875 7.15625 -1.140625 L 7.09375 -1.140625 C 6.519531 -0.273438 5.632812 0.15625 4.4375 0.15625 C 3.320312 0.15625 2.453125 -0.234375 1.828125 -1.015625 C 1.203125 -1.796875 0.890625 -2.882812 0.890625 -4.28125 C 0.890625 -5.65625 1.203125 -6.742188 1.828125 -7.546875 C 2.453125 -8.359375 3.316406 -8.765625 4.421875 -8.765625 Z M 4.609375 -7.578125 C 3.890625 -7.578125 3.332031 -7.289062 2.9375 -6.71875 C 2.539062 -6.144531 2.34375 -5.328125 2.34375 -4.265625 C 2.34375 -3.210938 2.535156 -2.40625 2.921875 -1.84375 C 3.304688 -1.28125 3.878906 -1 4.640625 -1 C 5.503906 -1 6.132812 -1.226562 6.53125 -1.6875 C 6.925781 -2.15625 7.125 -2.910156 7.125 -3.953125 L 7.125 -4.28125 C 7.125 -5.457031 6.921875 -6.300781 6.515625 -6.8125 C 6.109375 -7.320312 5.472656 -7.578125 4.609375 -7.578125 Z M 4.609375 -7.578125 "/></g></g></g><g fill="#000000" fill-opacity="1"><g transform="translate(237.329728, 284.00655)"><g/></g></g><g fill="#000000" fill-opacity="1"><g transform="translate(240.091252, 284.00655)"><g><path d="M 4.59375 -11.46875 C 6.09375 -11.46875 7.1875 -11.171875 7.875 -10.578125 C 8.5625 -9.992188 8.90625 -9.164062 8.90625 -8.09375 C 8.90625 -7.457031 8.757812 -6.863281 8.46875 -6.3125 C 8.1875 -5.769531 7.710938 -5.328125 7.046875 -4.984375 C 6.378906 -4.640625 5.472656 -4.46875 4.328125 -4.46875 L 3 -4.46875 L 3 0 L 1.5625 0 L 1.5625 -11.46875 Z M 4.46875 -10.234375 L 3 -10.234375 L 3 -5.703125 L 4.15625 -5.703125 C 5.25 -5.703125 6.0625 -5.878906 6.59375 -6.234375 C 7.132812 -6.585938 7.40625 -7.1875 7.40625 -8.03125 C 7.40625 -8.769531 7.164062 -9.320312 6.6875 -9.6875 C 6.207031 -10.050781 5.46875 -10.234375 4.46875 -10.234375 Z M 4.46875 -10.234375 "/></g></g></g><g fill="#000000" fill-opacity="1"><g transform="translate(250.958583, 284.00655)"><g><path d="M 5.375 -8.765625 C 5.539062 -8.765625 5.710938 -8.753906 5.890625 -8.734375 C 6.078125 -8.722656 6.242188 -8.703125 6.390625 -8.671875 L 6.21875 -7.375 C 6.070312 -7.40625 5.914062 -7.429688 5.75 -7.453125 C 5.582031 -7.472656 5.425781 -7.484375 5.28125 -7.484375 C 4.84375 -7.484375 4.429688 -7.363281 4.046875 -7.125 C 3.660156 -6.882812 3.351562 -6.546875 3.125 -6.109375 C 2.894531 -5.679688 2.78125 -5.175781 2.78125 -4.59375 L 2.78125 0 L 1.359375 0 L 1.359375 -8.609375 L 2.515625 -8.609375 L 2.6875 -7.03125 L 2.75 -7.03125 C 3.007812 -7.5 3.363281 -7.90625 3.8125 -8.25 C 4.257812 -8.59375 4.78125 -8.765625 5.375 -8.765625 Z M 5.375 -8.765625 "/></g></g></g><g fill="#000000" fill-opacity="1"><g transform="translate(258.744104, 284.00655)"><g><path d="M 8.84375 -4.328125 C 8.84375 -2.898438 8.484375 -1.796875 7.765625 -1.015625 C 7.046875 -0.234375 6.066406 0.15625 4.828125 0.15625 C 4.066406 0.15625 3.390625 -0.015625 2.796875 -0.359375 C 2.203125 -0.710938 1.734375 -1.222656 1.390625 -1.890625 C 1.054688 -2.554688 0.890625 -3.367188 0.890625 -4.328125 C 0.890625 -5.742188 1.242188 -6.835938 1.953125 -7.609375 C 2.660156 -8.378906 3.640625 -8.765625 4.890625 -8.765625 C 5.660156 -8.765625 6.34375 -8.585938 6.9375 -8.234375 C 7.539062 -7.890625 8.007812 -7.390625 8.34375 -6.734375 C 8.675781 -6.078125 8.84375 -5.273438 8.84375 -4.328125 Z M 2.34375 -4.328125 C 2.34375 -3.304688 2.539062 -2.5 2.9375 -1.90625 C 3.34375 -1.3125 3.984375 -1.015625 4.859375 -1.015625 C 5.734375 -1.015625 6.375 -1.3125 6.78125 -1.90625 C 7.1875 -2.5 7.390625 -3.304688 7.390625 -4.328125 C 7.390625 -5.335938 7.1875 -6.128906 6.78125 -6.703125 C 6.375 -7.285156 5.726562 -7.578125 4.84375 -7.578125 C 3.96875 -7.578125 3.332031 -7.285156 2.9375 -6.703125 C 2.539062 -6.128906 2.34375 -5.335938 2.34375 -4.328125 Z M 2.34375 -4.328125 "/></g></g></g><g fill="#000000" fill-opacity="1"><g transform="translate(269.611435, 284.00655)"><g><path d="M 1.25 -10.9375 C 1.25 -11.25 1.328125 -11.476562 1.484375 -11.625 C 1.648438 -11.769531 1.851562 -11.84375 2.09375 -11.84375 C 2.300781 -11.84375 2.488281 -11.769531 2.65625 -11.625 C 2.820312 -11.476562 2.90625 -11.25 2.90625 -10.9375 C 2.90625 -10.625 2.820312 -10.394531 2.65625 -10.25 C 2.488281 -10.101562 2.300781 -10.03125 2.09375 -10.03125 C 1.851562 -10.03125 1.648438 -10.101562 1.484375 -10.25 C 1.328125 -10.394531 1.25 -10.625 1.25 -10.9375 Z M 0.359375 3.859375 C 0.078125 3.859375 -0.160156 3.835938 -0.359375 3.796875 C -0.566406 3.765625 -0.742188 3.71875 -0.890625 3.65625 L -0.890625 2.515625 C -0.722656 2.578125 -0.550781 2.617188 -0.375 2.640625 C -0.207031 2.671875 -0.0234375 2.6875 0.171875 2.6875 C 0.515625 2.6875 0.796875 2.59375 1.015625 2.40625 C 1.242188 2.21875 1.359375 1.859375 1.359375 1.328125 L 1.359375 -8.609375 L 2.78125 -8.609375 L 2.78125 1.28125 C 2.78125 2.082031 2.585938 2.710938 2.203125 3.171875 C 1.816406 3.628906 1.203125 3.859375 0.359375 3.859375 Z M 0.359375 3.859375 "/></g></g></g><g fill="#000000" fill-opacity="1"><g transform="translate(274.909035, 284.00655)"><g><path d="M 4.6875 -8.765625 C 5.414062 -8.765625 6.046875 -8.601562 6.578125 -8.28125 C 7.117188 -7.96875 7.53125 -7.519531 7.8125 -6.9375 C 8.09375 -6.351562 8.234375 -5.671875 8.234375 -4.890625 L 8.234375 -4.03125 L 2.34375 -4.03125 C 2.363281 -3.050781 2.613281 -2.304688 3.09375 -1.796875 C 3.570312 -1.296875 4.238281 -1.046875 5.09375 -1.046875 C 5.632812 -1.046875 6.117188 -1.09375 6.546875 -1.1875 C 6.972656 -1.289062 7.410156 -1.441406 7.859375 -1.640625 L 7.859375 -0.40625 C 7.421875 -0.207031 6.984375 -0.0664062 6.546875 0.015625 C 6.117188 0.109375 5.613281 0.15625 5.03125 0.15625 C 4.207031 0.15625 3.484375 -0.00390625 2.859375 -0.328125 C 2.234375 -0.660156 1.75 -1.15625 1.40625 -1.8125 C 1.0625 -2.46875 0.890625 -3.273438 0.890625 -4.234375 C 0.890625 -5.179688 1.046875 -5.988281 1.359375 -6.65625 C 1.671875 -7.332031 2.113281 -7.851562 2.6875 -8.21875 C 3.257812 -8.582031 3.925781 -8.765625 4.6875 -8.765625 Z M 4.671875 -7.609375 C 3.992188 -7.609375 3.457031 -7.390625 3.0625 -6.953125 C 2.675781 -6.523438 2.445312 -5.925781 2.375 -5.15625 L 6.765625 -5.15625 C 6.753906 -5.882812 6.582031 -6.472656 6.25 -6.921875 C 5.914062 -7.378906 5.390625 -7.609375 4.671875 -7.609375 Z M 4.671875 -7.609375 "/></g></g></g><g fill="#000000" fill-opacity="1"><g transform="translate(285.118268, 284.00655)"><g><path d="M 4.8125 0.15625 C 4.039062 0.15625 3.359375 0.00390625 2.765625 -0.296875 C 2.179688 -0.609375 1.722656 -1.09375 1.390625 -1.75 C 1.054688 -2.40625 0.890625 -3.238281 0.890625 -4.25 C 0.890625 -5.3125 1.0625 -6.175781 1.40625 -6.84375 C 1.75 -7.507812 2.226562 -7.992188 2.84375 -8.296875 C 3.457031 -8.609375 4.148438 -8.765625 4.921875 -8.765625 C 5.347656 -8.765625 5.765625 -8.71875 6.171875 -8.625 C 6.585938 -8.539062 6.925781 -8.429688 7.1875 -8.296875 L 6.75 -7.125 C 6.488281 -7.226562 6.1875 -7.320312 5.84375 -7.40625 C 5.5 -7.488281 5.179688 -7.53125 4.890625 -7.53125 C 3.191406 -7.53125 2.34375 -6.441406 2.34375 -4.265625 C 2.34375 -3.234375 2.546875 -2.441406 2.953125 -1.890625 C 3.367188 -1.335938 3.984375 -1.0625 4.796875 -1.0625 C 5.265625 -1.0625 5.675781 -1.109375 6.03125 -1.203125 C 6.394531 -1.296875 6.726562 -1.414062 7.03125 -1.5625 L 7.03125 -0.3125 C 6.75 -0.15625 6.429688 -0.0390625 6.078125 0.03125 C 5.734375 0.113281 5.3125 0.15625 4.8125 0.15625 Z M 4.8125 0.15625 "/></g></g></g><g fill="#000000" fill-opacity="1"><g transform="translate(293.979228, 284.00655)"><g><path d="M 4.234375 -1 C 4.453125 -1 4.671875 -1.015625 4.890625 -1.046875 C 5.117188 -1.078125 5.300781 -1.117188 5.4375 -1.171875 L 5.4375 -0.09375 C 5.289062 -0.0195312 5.078125 0.0351562 4.796875 0.078125 C 4.523438 0.128906 4.257812 0.15625 4 0.15625 C 3.550781 0.15625 3.132812 0.078125 2.75 -0.078125 C 2.375 -0.234375 2.066406 -0.503906 1.828125 -0.890625 C 1.597656 -1.273438 1.484375 -1.8125 1.484375 -2.5 L 1.484375 -7.515625 L 0.25 -7.515625 L 0.25 -8.1875 L 1.5 -8.75 L 2.0625 -10.578125 L 2.890625 -10.578125 L 2.890625 -8.609375 L 5.375 -8.609375 L 5.375 -7.515625 L 2.890625 -7.515625 L 2.890625 -2.53125 C 2.890625 -2.007812 3.015625 -1.625 3.265625 -1.375 C 3.515625 -1.125 3.835938 -1 4.234375 -1 Z M 4.234375 -1 "/></g></g></g><g fill="#000000" fill-opacity="1"><g transform="translate(81.347627, 261.481843)"><g><path d="M 29.734375 -39.34375 L 29.734375 -34.71875 L 18.3125 -34.71875 L 18.3125 0 L 13.21875 0 L 13.21875 -34.71875 L 1.796875 -34.71875 L 1.796875 -39.34375 Z M 29.734375 -39.34375 "/></g></g></g><g fill="#000000" fill-opacity="1"><g transform="translate(110.415847, 261.481843)"><g><path d="M 19.09375 -39.34375 L 31.171875 0 L 25.640625 0 L 23.0625 -9.125 L 8.59375 -9.125 L 6 0 L 0.78125 0 L 12.796875 -39.34375 Z M 15.859375 -34.65625 L 9.84375 -13.6875 L 21.796875 -13.6875 Z M 15.859375 -34.65625 "/></g></g></g><g fill="#000000" fill-opacity="1"><g transform="translate(139.904477, 261.481843)"><g><path d="M 17 -40.0625 C 18.5625 -40.0625 20.253906 -39.910156 22.078125 -39.609375 C 23.898438 -39.304688 24.96875 -39.132812 25.28125 -39.09375 L 25.171875 -34.59375 C 21.640625 -35.238281 18.914062 -35.5625 17 -35.5625 C 14.269531 -35.5625 12.304688 -35 11.109375 -33.875 C 9.910156 -32.75 9.3125 -30.890625 9.3125 -28.296875 L 9.3125 -11.109375 C 9.3125 -8.503906 9.898438 -6.648438 11.078125 -5.546875 C 12.265625 -4.453125 14.238281 -3.90625 17 -3.90625 C 18.914062 -3.90625 21.640625 -4.222656 25.171875 -4.859375 L 25.28125 -0.234375 C 24.96875 -0.203125 23.898438 -0.0351562 22.078125 0.265625 C 20.253906 0.566406 18.5625 0.71875 17 0.71875 C 12.394531 0.71875 9.109375 -0.257812 7.140625 -2.21875 C 5.179688 -4.1875 4.203125 -7.25 4.203125 -11.40625 L 4.203125 -27.921875 C 4.203125 -32.085938 5.179688 -35.148438 7.140625 -37.109375 C 9.109375 -39.078125 12.394531 -40.0625 17 -40.0625 Z M 17 -40.0625 "/></g></g></g><g fill="#000000" fill-opacity="1"><g transform="translate(166.029826, 261.481843)"><g><path d="M 17.296875 -40.0625 C 21.785156 -40.0625 25.085938 -38.9375 27.203125 -36.6875 C 29.328125 -34.445312 30.390625 -31.265625 30.390625 -27.140625 L 30.390625 -12.1875 C 30.390625 -8.0625 29.328125 -4.878906 27.203125 -2.640625 C 25.085938 -0.398438 21.785156 0.71875 17.296875 0.71875 C 12.816406 0.71875 9.515625 -0.398438 7.390625 -2.640625 C 5.265625 -4.878906 4.203125 -8.0625 4.203125 -12.1875 L 4.203125 -27.140625 C 4.203125 -31.265625 5.265625 -34.445312 7.390625 -36.6875 C 9.515625 -38.9375 12.816406 -40.0625 17.296875 -40.0625 Z M 17.296875 -35.5625 C 14.648438 -35.5625 12.65625 -34.898438 11.3125 -33.578125 C 9.976562 -32.253906 9.3125 -30.3125 9.3125 -27.75 L 9.3125 -11.65625 C 9.3125 -9.09375 9.976562 -7.140625 11.3125 -5.796875 C 12.65625 -4.453125 14.648438 -3.78125 17.296875 -3.78125 C 19.941406 -3.78125 21.929688 -4.453125 23.265625 -5.796875 C 24.609375 -7.140625 25.28125 -9.09375 25.28125 -11.65625 L 25.28125 -27.6875 C 25.28125 -30.25 24.609375 -32.203125 23.265625 -33.546875 C 21.929688 -34.890625 19.941406 -35.5625 17.296875 -35.5625 Z M 17.296875 -35.5625 "/></g></g></g><g fill="#000000" fill-opacity="1"><g transform="translate(198.161034, 261.481843)"><g/></g></g><g fill="#000000" fill-opacity="1"><g transform="translate(206.509041, 261.481843)"><g><path d="M 17 -40.0625 C 18.5625 -40.0625 20.253906 -39.910156 22.078125 -39.609375 C 23.898438 -39.304688 24.96875 -39.132812 25.28125 -39.09375 L 25.171875 -34.59375 C 21.640625 -35.238281 18.914062 -35.5625 17 -35.5625 C 14.269531 -35.5625 12.304688 -35 11.109375 -33.875 C 9.910156 -32.75 9.3125 -30.890625 9.3125 -28.296875 L 9.3125 -11.109375 C 9.3125 -8.503906 9.898438 -6.648438 11.078125 -5.546875 C 12.265625 -4.453125 14.238281 -3.90625 17 -3.90625 C 18.914062 -3.90625 21.640625 -4.222656 25.171875 -4.859375 L 25.28125 -0.234375 C 24.96875 -0.203125 23.898438 -0.0351562 22.078125 0.265625 C 20.253906 0.566406 18.5625 0.71875 17 0.71875 C 12.394531 0.71875 9.109375 -0.257812 7.140625 -2.21875 C 5.179688 -4.1875 4.203125 -7.25 4.203125 -11.40625 L 4.203125 -27.921875 C 4.203125 -32.085938 5.179688 -35.148438 7.140625 -37.109375 C 9.109375 -39.078125 12.394531 -40.0625 17 -40.0625 Z M 17 -40.0625 "/></g></g></g><g fill="#000000" fill-opacity="1"><g transform="translate(232.63439, 261.481843)"><g><path d="M 19.09375 -39.34375 L 31.171875 0 L 25.640625 0 L 23.0625 -9.125 L 8.59375 -9.125 L 6 0 L 0.78125 0 L 12.796875 -39.34375 Z M 15.859375 -34.65625 L 9.84375 -13.6875 L 21.796875 -13.6875 Z M 15.859375 -34.65625 "/></g></g></g><g fill="#000000" fill-opacity="1"><g transform="translate(262.12302, 261.481843)"><g><path d="M 29.734375 -39.34375 L 29.734375 -34.71875 L 18.3125 -34.71875 L 18.3125 0 L 13.21875 0 L 13.21875 -34.71875 L 1.796875 -34.71875 L 1.796875 -39.34375 Z M 29.734375 -39.34375 "/></g></g></g></svg>